<svg width="300" height="195" viewBox="0 0 300 195" fill="none" xmlns="http://www.w3.org/2000/svg">
<path d="M224.215 84.26H74.3849C70.4149 84.26 67.1749 87.51 67.1749 91.47V126.72C67.1749 130.69 70.4149 133.93 74.3849 133.93H224.215C228.185 133.93 231.425 130.68 231.425 126.72V91.47C231.425 87.5 228.185 84.26 224.215 84.26ZM102.435 130.9C90.3949 130.9 80.6349 121.14 80.6349 109.1C80.6349 97.06 90.3949 87.3 102.435 87.3C114.475 87.3 124.235 97.06 124.235 109.1C124.235 121.14 114.475 130.9 102.435 130.9Z" stroke="#5B6770" stroke-width="1.5" stroke-miterlimit="10"/>
<path d="M102.435 91.47C92.7049 91.47 84.8149 99.36 84.8149 109.09C84.8149 118.82 92.7049 126.71 102.435 126.71C112.165 126.71 120.055 118.82 120.055 109.09C120.055 99.36 112.165 91.47 102.435 91.47ZM110.055 116.72C105.845 120.93 99.0149 120.93 94.8049 116.72C90.5949 112.51 90.5949 105.68 94.8049 101.47C99.0149 97.26 105.845 97.26 110.055 101.47C114.265 105.68 114.265 112.51 110.055 116.72Z" stroke="#5B6770" stroke-width="1.2871" stroke-miterlimit="10"/>
<path d="M81.5249 133.93V135.38C81.5249 137.78 82.4349 139.74 83.5449 139.74H93.8949C95.0049 139.74 95.9149 137.78 95.9149 135.38V133.93" stroke="#5B6770" stroke-width="1.5" stroke-miterlimit="10"/>
<path d="M202.705 133.93V135.38C202.705 137.78 203.615 139.74 204.725 139.74H215.075C216.185 139.74 217.095 137.78 217.095 135.38V133.93" stroke="#5B6770" stroke-width="1.5" stroke-miterlimit="10"/>
<path d="M224.515 119.88H143.395V123.79H224.515V119.88Z" stroke="#5B6770" stroke-width="1.5" stroke-miterlimit="10"/>
<path d="M224.515 110.92H143.395V114.83H224.515V110.92Z" stroke="#5B6770" stroke-width="1.5" stroke-miterlimit="10"/>
<path d="M224.515 101.97H143.395V105.88H224.515V101.97Z" stroke="#5B6770" stroke-width="1.5" stroke-miterlimit="10"/>
<path d="M224.515 93.01H143.395V96.92H224.515V93.01Z" stroke="#5B6770" stroke-width="1.5" stroke-miterlimit="10"/>
</svg>
