<svg width="300" height="224" viewBox="0 0 300 224" fill="none" xmlns="http://www.w3.org/2000/svg">
<path d="M224.415 84.26H74.585C70.615 84.26 67.375 87.51 67.375 91.47V126.72C67.375 130.69 70.615 133.93 74.585 133.93H224.415C228.385 133.93 231.625 130.68 231.625 126.72V91.47C231.625 87.5 228.385 84.26 224.415 84.26ZM102.635 130.9C90.595 130.9 80.835 121.14 80.835 109.1C80.835 97.06 90.595 87.3 102.635 87.3C114.675 87.3 124.435 97.06 124.435 109.1C124.435 121.14 114.675 130.9 102.635 130.9Z" stroke="#5B6770" stroke-width="1.5" stroke-miterlimit="10"/>
<path d="M102.635 91.47C92.905 91.47 85.015 99.36 85.015 109.09C85.015 118.82 92.905 126.71 102.635 126.71C112.365 126.71 120.255 118.82 120.255 109.09C120.255 99.36 112.365 91.47 102.635 91.47ZM110.255 116.72C106.045 120.93 99.215 120.93 95.005 116.72C90.795 112.51 90.795 105.68 95.005 101.47C99.215 97.26 106.045 97.26 110.255 101.47C114.465 105.68 114.465 112.51 110.255 116.72Z" stroke="#5B6770" stroke-width="1.2871" stroke-miterlimit="10"/>
<path d="M81.725 133.93V135.38C81.725 137.78 82.635 139.74 83.745 139.74H94.095C95.205 139.74 96.115 137.78 96.115 135.38V133.93" stroke="#5B6770" stroke-width="1.5" stroke-miterlimit="10"/>
<path d="M202.905 133.93V135.38C202.905 137.78 203.815 139.74 204.925 139.74H215.275C216.385 139.74 217.295 137.78 217.295 135.38V133.93" stroke="#5B6770" stroke-width="1.5" stroke-miterlimit="10"/>
<path d="M224.715 119.88H143.595V123.79H224.715V119.88Z" stroke="#5B6770" stroke-width="1.5" stroke-miterlimit="10"/>
<path d="M224.715 110.92H143.595V114.83H224.715V110.92Z" stroke="#5B6770" stroke-width="1.5" stroke-miterlimit="10"/>
<path d="M224.715 101.97H143.595V105.88H224.715V101.97Z" stroke="#5B6770" stroke-width="1.5" stroke-miterlimit="10"/>
<path d="M224.715 93.01H143.595V96.92H224.715V93.01Z" stroke="#5B6770" stroke-width="1.5" stroke-miterlimit="10"/>
</svg>
