<svg width="300" height="211" viewBox="0 0 300 211" fill="none" xmlns="http://www.w3.org/2000/svg">
<path d="M224.215 100.26H74.3849C70.4149 100.26 67.1749 103.51 67.1749 107.47V142.72C67.1749 146.69 70.4149 149.93 74.3849 149.93H224.215C228.185 149.93 231.425 146.68 231.425 142.72V107.47C231.425 103.5 228.185 100.26 224.215 100.26ZM102.435 146.9C90.3949 146.9 80.6349 137.14 80.6349 125.1C80.6349 113.06 90.3949 103.3 102.435 103.3C114.475 103.3 124.235 113.06 124.235 125.1C124.235 137.14 114.475 146.9 102.435 146.9Z" stroke="#5B6770" stroke-width="1.5" stroke-miterlimit="10"/>
<path d="M102.435 107.47C92.7049 107.47 84.8149 115.36 84.8149 125.09C84.8149 134.82 92.7049 142.71 102.435 142.71C112.165 142.71 120.055 134.82 120.055 125.09C120.055 115.36 112.165 107.47 102.435 107.47ZM110.055 132.72C105.845 136.93 99.0149 136.93 94.8049 132.72C90.5949 128.51 90.5949 121.68 94.8049 117.47C99.0149 113.26 105.845 113.26 110.055 117.47C114.265 121.68 114.265 128.51 110.055 132.72Z" stroke="#5B6770" stroke-width="1.2871" stroke-miterlimit="10"/>
<path d="M81.5249 149.93V151.38C81.5249 153.78 82.4349 155.74 83.5449 155.74H93.8949C95.0049 155.74 95.9149 153.78 95.9149 151.38V149.93" stroke="#5B6770" stroke-width="1.5" stroke-miterlimit="10"/>
<path d="M202.705 149.93V151.38C202.705 153.78 203.615 155.74 204.725 155.74H215.075C216.185 155.74 217.095 153.78 217.095 151.38V149.93" stroke="#5B6770" stroke-width="1.5" stroke-miterlimit="10"/>
<path d="M224.515 135.88H143.395V139.79H224.515V135.88Z" stroke="#5B6770" stroke-width="1.5" stroke-miterlimit="10"/>
<path d="M224.515 126.92H143.395V130.83H224.515V126.92Z" stroke="#5B6770" stroke-width="1.5" stroke-miterlimit="10"/>
<path d="M224.515 117.97H143.395V121.88H224.515V117.97Z" stroke="#5B6770" stroke-width="1.5" stroke-miterlimit="10"/>
<path d="M224.515 109.01H143.395V112.92H224.515V109.01Z" stroke="#5B6770" stroke-width="1.5" stroke-miterlimit="10"/>
</svg>
