<svg width="300" height="195" viewBox="0 0 300 195" fill="none" xmlns="http://www.w3.org/2000/svg">
<path d="M66.56 157.24H233.44" stroke="#5B6770" stroke-width="1.5002" stroke-miterlimit="10"/>
<path d="M185.12 104.89C189.107 104.89 192.34 101.658 192.34 97.67C192.34 93.6825 189.107 90.45 185.12 90.45C181.132 90.45 177.9 93.6825 177.9 97.67C177.9 101.658 181.132 104.89 185.12 104.89Z" fill="#5B6770"/>
<path d="M231.94 59.02V164.98H68.06V59.02H231.94ZM233.44 57.52H66.56V166.48H233.44V57.52Z" fill="#5B6770"/>
<path d="M185.12 110.12C191.996 110.12 197.57 104.546 197.57 97.67C197.57 90.7941 191.996 85.22 185.12 85.22C178.244 85.22 172.67 90.7941 172.67 97.67C172.67 104.546 178.244 110.12 185.12 110.12Z" stroke="#5B6770" stroke-width="1.5" stroke-miterlimit="10"/>
<path d="M185.12 114.83C194.597 114.83 202.28 107.147 202.28 97.67C202.28 88.1928 194.597 80.51 185.12 80.51C175.643 80.51 167.96 88.1928 167.96 97.67C167.96 107.147 175.643 114.83 185.12 114.83Z" stroke="#5B6770" stroke-width="1.5" stroke-miterlimit="10"/>
<path d="M185.12 120.35C197.646 120.35 207.8 110.196 207.8 97.67C207.8 85.1442 197.646 74.99 185.12 74.99C172.594 74.99 162.44 85.1442 162.44 97.67C162.44 110.196 172.594 120.35 185.12 120.35Z" stroke="#5B6770" stroke-width="1.5" stroke-miterlimit="10"/>
<path d="M183.78 166.48H208.61C208.61 166.44 208.61 166.39 208.61 166.35L208.72 156.98C208.93 156.58 209.93 155.7 210.47 155.21C211.24 154.53 211.9 153.94 212.25 153.39C215.32 148.63 215.17 142.67 215.04 137.42C215.03 136.89 215.01 136.37 215 135.85V129.59C215 128.97 214.91 128.32 214.74 127.69C214.61 126.98 214.32 126.33 213.92 125.77C213.66 125.36 213.36 125.01 213.02 124.74C212.31 124.18 211.47 123.9 210.59 123.91C210.51 123.91 210.43 123.9 210.34 123.9C208.81 123.9 207.45 124.48 206.65 125.71C206.67 125.13 206.69 124.56 206.63 124.06C206.61 122.86 206.21 121.91 205.6 121.19C204.79 120 203.46 119.23 201.96 119.23C200.43 119.23 199.07 120.04 198.27 121.27V120.32C198.27 119.78 198.19 119.23 198.04 118.71C197.65 116.55 195.83 114.91 193.65 114.91C192.12 114.91 190.77 115.71 189.97 116.94C190.02 111 189.92 101.59 189.92 100.97C189.92 98.39 187.92 96.29 185.45 96.29C182.98 96.29 180.98 98.38 180.98 100.97C180.98 101.37 181.03 126.39 181.03 126.39C181.03 130.49 180.72 132.31 180.5 133.1C180.48 133.07 180.45 133.03 180.43 133C178.75 130.46 176.76 127.91 174.53 125.2C173.52 123.97 172.26 123.35 170.57 123.35C169.27 123.35 168.1 123.95 167.3 124.91C167.01 125.18 166.8 125.47 166.66 125.75C166.34 126.36 166.21 127.05 166.23 127.79C166.23 127.83 166.22 127.86 166.22 127.9C166.22 128.35 166.28 128.78 166.4 129.19C166.77 130.91 167.68 132.79 168.58 134.53L168.7 134.77C173.18 143.44 177.51 150.06 182.3 155.62C183.66 157.19 183.68 163.52 183.72 165.65C183.76 165.9 183.77 166.18 183.78 166.48Z" fill="#5B6770" stroke="#EAEAEA" stroke-width="1.4707" stroke-miterlimit="10"/>
</svg>
