<svg width="300" height="211" viewBox="0 0 300 211" fill="none" xmlns="http://www.w3.org/2000/svg">
<path d="M66.56 173.24H233.44" stroke="#5B6770" stroke-width="1.5002" stroke-miterlimit="10"/>
<path d="M185.12 120.89C189.107 120.89 192.34 117.658 192.34 113.67C192.34 109.683 189.107 106.45 185.12 106.45C181.132 106.45 177.9 109.683 177.9 113.67C177.9 117.658 181.132 120.89 185.12 120.89Z" fill="#5B6770"/>
<path d="M231.94 75.02V180.98H68.06V75.02H231.94ZM233.44 73.52H66.56V182.48H233.44V73.52Z" fill="#5B6770"/>
<path d="M185.12 126.12C191.996 126.12 197.57 120.546 197.57 113.67C197.57 106.794 191.996 101.22 185.12 101.22C178.244 101.22 172.67 106.794 172.67 113.67C172.67 120.546 178.244 126.12 185.12 126.12Z" stroke="#5B6770" stroke-width="1.5" stroke-miterlimit="10"/>
<path d="M185.12 130.83C194.597 130.83 202.28 123.147 202.28 113.67C202.28 104.193 194.597 96.51 185.12 96.51C175.643 96.51 167.96 104.193 167.96 113.67C167.96 123.147 175.643 130.83 185.12 130.83Z" stroke="#5B6770" stroke-width="1.5" stroke-miterlimit="10"/>
<path d="M185.12 136.35C197.646 136.35 207.8 126.196 207.8 113.67C207.8 101.144 197.646 90.99 185.12 90.99C172.594 90.99 162.44 101.144 162.44 113.67C162.44 126.196 172.594 136.35 185.12 136.35Z" stroke="#5B6770" stroke-width="1.5" stroke-miterlimit="10"/>
<path d="M183.78 182.48H208.61C208.61 182.44 208.61 182.39 208.61 182.35L208.72 172.98C208.93 172.58 209.93 171.7 210.47 171.21C211.24 170.53 211.9 169.94 212.25 169.39C215.32 164.63 215.17 158.67 215.04 153.42C215.03 152.89 215.01 152.37 215 151.85V145.59C215 144.97 214.91 144.32 214.74 143.69C214.61 142.98 214.32 142.33 213.92 141.77C213.66 141.36 213.36 141.01 213.02 140.74C212.31 140.18 211.47 139.9 210.59 139.91C210.51 139.91 210.43 139.9 210.34 139.9C208.81 139.9 207.45 140.48 206.65 141.71C206.67 141.13 206.69 140.56 206.63 140.06C206.61 138.86 206.21 137.91 205.6 137.19C204.79 136 203.46 135.23 201.96 135.23C200.43 135.23 199.07 136.04 198.27 137.27V136.32C198.27 135.78 198.19 135.23 198.04 134.71C197.65 132.55 195.83 130.91 193.65 130.91C192.12 130.91 190.77 131.71 189.97 132.94C190.02 127 189.92 117.59 189.92 116.97C189.92 114.39 187.92 112.29 185.45 112.29C182.98 112.29 180.98 114.38 180.98 116.97C180.98 117.37 181.03 142.39 181.03 142.39C181.03 146.49 180.72 148.31 180.5 149.1C180.48 149.07 180.45 149.03 180.43 149C178.75 146.46 176.76 143.91 174.53 141.2C173.52 139.97 172.26 139.35 170.57 139.35C169.27 139.35 168.1 139.95 167.3 140.91C167.01 141.18 166.8 141.47 166.66 141.75C166.34 142.36 166.21 143.05 166.23 143.79C166.23 143.83 166.22 143.86 166.22 143.9C166.22 144.35 166.28 144.78 166.4 145.19C166.77 146.91 167.68 148.79 168.58 150.53L168.7 150.77C173.18 159.44 177.51 166.06 182.3 171.62C183.66 173.19 183.68 179.52 183.72 181.65C183.76 181.9 183.77 182.18 183.78 182.48Z" fill="#5B6770" stroke="#EAEAEA" stroke-width="1.4707" stroke-miterlimit="10"/>
</svg>
