<svg width="300" height="224" viewBox="0 0 300 224" fill="none" xmlns="http://www.w3.org/2000/svg">
<path d="M177.45 63.4H67.95V172.9H177.45V63.4Z" stroke="#5B6770" stroke-width="1.5" stroke-miterlimit="10"/>
<path d="M67.95 154.65H177.45" stroke="#5B6770" stroke-width="1.5" stroke-miterlimit="10"/>
<path d="M67.95 136.4H177.45" stroke="#5B6770" stroke-width="1.5" stroke-miterlimit="10"/>
<path d="M67.95 118.15H177.45" stroke="#5B6770" stroke-width="1.5" stroke-miterlimit="10"/>
<path d="M67.95 99.9H177.45" stroke="#5B6770" stroke-width="1.5" stroke-miterlimit="10"/>
<path d="M67.95 81.65H177.45" stroke="#5B6770" stroke-width="1.5" stroke-miterlimit="10"/>
<path d="M159.2 63.4V172.9" stroke="#5B6770" stroke-width="1.5" stroke-miterlimit="10"/>
<path d="M140.95 63.4V172.9" stroke="#5B6770" stroke-width="1.5" stroke-miterlimit="10"/>
<path d="M122.7 63.4V172.9" stroke="#5B6770" stroke-width="1.5" stroke-miterlimit="10"/>
<path d="M104.45 63.4V172.9" stroke="#5B6770" stroke-width="1.5" stroke-miterlimit="10"/>
<path d="M86.2 63.4V172.9" stroke="#5B6770" stroke-width="1.5" stroke-miterlimit="10"/>
<path d="M177.45 63.4H232.2V172.9H177.45" stroke="#5B6770" stroke-width="1.5" stroke-miterlimit="10"/>
<path d="M177.45 154.65H232.2" stroke="#5B6770" stroke-width="1.5" stroke-miterlimit="10"/>
<path d="M177.45 136.4H232.2" stroke="#5B6770" stroke-width="1.5" stroke-miterlimit="10"/>
<path d="M177.45 118.15H232.2" stroke="#5B6770" stroke-width="1.5" stroke-miterlimit="10"/>
<path d="M177.45 99.9H232.2" stroke="#5B6770" stroke-width="1.5" stroke-miterlimit="10"/>
<path d="M177.45 81.65H232.2" stroke="#5B6770" stroke-width="1.5" stroke-miterlimit="10"/>
<path d="M213.95 63.4V172.9" stroke="#5B6770" stroke-width="1.5" stroke-miterlimit="10"/>
<path d="M195.7 63.4V172.9" stroke="#5B6770" stroke-width="1.5" stroke-miterlimit="10"/>
</svg>
