<svg width="300" height="195" viewBox="0 0 300 195" fill="none" xmlns="http://www.w3.org/2000/svg">
<path d="M177.85 63.4H68.3499V172.9H177.85V63.4Z" stroke="#5B6770" stroke-width="1.5" stroke-miterlimit="10"/>
<path d="M68.3499 154.65H177.85" stroke="#5B6770" stroke-width="1.5" stroke-miterlimit="10"/>
<path d="M68.3499 136.4H177.85" stroke="#5B6770" stroke-width="1.5" stroke-miterlimit="10"/>
<path d="M68.3499 118.15H177.85" stroke="#5B6770" stroke-width="1.5" stroke-miterlimit="10"/>
<path d="M68.3499 99.9H177.85" stroke="#5B6770" stroke-width="1.5" stroke-miterlimit="10"/>
<path d="M68.3499 81.65H177.85" stroke="#5B6770" stroke-width="1.5" stroke-miterlimit="10"/>
<path d="M159.6 63.4V172.9" stroke="#5B6770" stroke-width="1.5" stroke-miterlimit="10"/>
<path d="M141.35 63.4V172.9" stroke="#5B6770" stroke-width="1.5" stroke-miterlimit="10"/>
<path d="M123.1 63.4V172.9" stroke="#5B6770" stroke-width="1.5" stroke-miterlimit="10"/>
<path d="M104.85 63.4V172.9" stroke="#5B6770" stroke-width="1.5" stroke-miterlimit="10"/>
<path d="M86.5999 63.4V172.9" stroke="#5B6770" stroke-width="1.5" stroke-miterlimit="10"/>
<path d="M177.85 63.4H232.6V172.9H177.85" stroke="#5B6770" stroke-width="1.5" stroke-miterlimit="10"/>
<path d="M177.85 154.65H232.6" stroke="#5B6770" stroke-width="1.5" stroke-miterlimit="10"/>
<path d="M177.85 136.4H232.6" stroke="#5B6770" stroke-width="1.5" stroke-miterlimit="10"/>
<path d="M177.85 118.15H232.6" stroke="#5B6770" stroke-width="1.5" stroke-miterlimit="10"/>
<path d="M177.85 99.9H232.6" stroke="#5B6770" stroke-width="1.5" stroke-miterlimit="10"/>
<path d="M177.85 81.65H232.6" stroke="#5B6770" stroke-width="1.5" stroke-miterlimit="10"/>
<path d="M214.35 63.4V172.9" stroke="#5B6770" stroke-width="1.5" stroke-miterlimit="10"/>
<path d="M196.1 63.4V172.9" stroke="#5B6770" stroke-width="1.5" stroke-miterlimit="10"/>
</svg>
