<svg width="300" height="211" viewBox="0 0 300 211" fill="none" xmlns="http://www.w3.org/2000/svg">
<path d="M177.85 79.4H68.3499V188.9H177.85V79.4Z" stroke="#5B6770" stroke-width="1.5" stroke-miterlimit="10"/>
<path d="M68.3499 170.65H177.85" stroke="#5B6770" stroke-width="1.5" stroke-miterlimit="10"/>
<path d="M68.3499 152.4H177.85" stroke="#5B6770" stroke-width="1.5" stroke-miterlimit="10"/>
<path d="M68.3499 134.15H177.85" stroke="#5B6770" stroke-width="1.5" stroke-miterlimit="10"/>
<path d="M68.3499 115.9H177.85" stroke="#5B6770" stroke-width="1.5" stroke-miterlimit="10"/>
<path d="M68.3499 97.65H177.85" stroke="#5B6770" stroke-width="1.5" stroke-miterlimit="10"/>
<path d="M159.6 79.4V188.9" stroke="#5B6770" stroke-width="1.5" stroke-miterlimit="10"/>
<path d="M141.35 79.4V188.9" stroke="#5B6770" stroke-width="1.5" stroke-miterlimit="10"/>
<path d="M123.1 79.4V188.9" stroke="#5B6770" stroke-width="1.5" stroke-miterlimit="10"/>
<path d="M104.85 79.4V188.9" stroke="#5B6770" stroke-width="1.5" stroke-miterlimit="10"/>
<path d="M86.5999 79.4V188.9" stroke="#5B6770" stroke-width="1.5" stroke-miterlimit="10"/>
<path d="M177.85 79.4H232.6V188.9H177.85" stroke="#5B6770" stroke-width="1.5" stroke-miterlimit="10"/>
<path d="M177.85 170.65H232.6" stroke="#5B6770" stroke-width="1.5" stroke-miterlimit="10"/>
<path d="M177.85 152.4H232.6" stroke="#5B6770" stroke-width="1.5" stroke-miterlimit="10"/>
<path d="M177.85 134.15H232.6" stroke="#5B6770" stroke-width="1.5" stroke-miterlimit="10"/>
<path d="M177.85 115.9H232.6" stroke="#5B6770" stroke-width="1.5" stroke-miterlimit="10"/>
<path d="M177.85 97.65H232.6" stroke="#5B6770" stroke-width="1.5" stroke-miterlimit="10"/>
<path d="M214.35 79.4V188.9" stroke="#5B6770" stroke-width="1.5" stroke-miterlimit="10"/>
<path d="M196.1 79.4V188.9" stroke="#5B6770" stroke-width="1.5" stroke-miterlimit="10"/>
</svg>
