<svg width="300" height="211" viewBox="0 0 300 211" fill="none" xmlns="http://www.w3.org/2000/svg">
<path d="M152.19 118.73L169.3 88.36" stroke="#5B6770" stroke-width="1.5" stroke-miterlimit="10"/>
<path d="M172.89 89.58C177.247 89.58 180.78 86.0475 180.78 81.69C180.78 77.3324 177.247 73.8 172.89 73.8C168.532 73.8 165 77.3324 165 81.69C165 86.0475 168.532 89.58 172.89 89.58Z" stroke="#5B6770" stroke-width="1.5" stroke-miterlimit="10"/>
<path d="M154 118.93H140.43C138.47 118.93 136.88 120.52 136.88 122.48V136.04C136.88 138 138.47 139.59 140.43 139.59H154C155.96 139.59 157.55 138 157.55 136.04V122.47C157.55 120.52 155.96 118.93 154 118.93Z" stroke="#5B6770" stroke-width="1.5" stroke-miterlimit="10"/>
<path d="M140.43 118.93L134.18 95.61" stroke="#5B6770" stroke-width="1.5" stroke-miterlimit="10"/>
<path d="M136.86 128.35L121.12 140.72" stroke="#5B6770" stroke-width="1.5" stroke-miterlimit="10"/>
<path d="M144.82 139.52L133.79 167.88" stroke="#5B6770" stroke-width="1.5" stroke-miterlimit="10"/>
<path d="M157.55 136.04L179.18 156.96" stroke="#5B6770" stroke-width="1.5" stroke-miterlimit="10"/>
<path d="M132.94 96.27C135.828 96.27 138.17 93.9284 138.17 91.0399C138.17 88.1515 135.828 85.8099 132.94 85.8099C130.052 85.8099 127.71 88.1515 127.71 91.0399C127.71 93.9284 130.052 96.27 132.94 96.27Z" stroke="#5B6770" stroke-width="1.5" stroke-miterlimit="10"/>
<path d="M116.78 148.56C119.668 148.56 122.01 146.218 122.01 143.33C122.01 140.442 119.668 138.1 116.78 138.1C113.891 138.1 111.55 140.442 111.55 143.33C111.55 146.218 113.891 148.56 116.78 148.56Z" stroke="#5B6770" stroke-width="1.5" stroke-miterlimit="10"/>
<path d="M130.95 182.2C135.18 182.2 138.61 178.771 138.61 174.54C138.61 170.31 135.18 166.88 130.95 166.88C126.719 166.88 123.29 170.31 123.29 174.54C123.29 178.771 126.719 182.2 130.95 182.2Z" stroke="#5B6770" stroke-width="1.5" stroke-miterlimit="10"/>
<path d="M182.42 165.9C185.308 165.9 187.65 163.558 187.65 160.67C187.65 157.782 185.308 155.44 182.42 155.44C179.531 155.44 177.19 157.782 177.19 160.67C177.19 163.558 179.531 165.9 182.42 165.9Z" stroke="#5B6770" stroke-width="1.5" stroke-miterlimit="10"/>
</svg>
