<svg width="300" height="195" viewBox="0 0 300 195" fill="none" xmlns="http://www.w3.org/2000/svg">
<path d="M152.19 102.73L169.3 72.36" stroke="#5B6770" stroke-width="1.5" stroke-miterlimit="10"/>
<path d="M172.89 73.58C177.247 73.58 180.78 70.0475 180.78 65.69C180.78 61.3324 177.247 57.8 172.89 57.8C168.532 57.8 165 61.3324 165 65.69C165 70.0475 168.532 73.58 172.89 73.58Z" stroke="#5B6770" stroke-width="1.5" stroke-miterlimit="10"/>
<path d="M154 102.93H140.43C138.47 102.93 136.88 104.52 136.88 106.48V120.04C136.88 122 138.47 123.59 140.43 123.59H154C155.96 123.59 157.55 122 157.55 120.04V106.47C157.55 104.52 155.96 102.93 154 102.93Z" stroke="#5B6770" stroke-width="1.5" stroke-miterlimit="10"/>
<path d="M140.43 102.93L134.18 79.61" stroke="#5B6770" stroke-width="1.5" stroke-miterlimit="10"/>
<path d="M136.86 112.35L121.12 124.72" stroke="#5B6770" stroke-width="1.5" stroke-miterlimit="10"/>
<path d="M144.82 123.52L133.79 151.88" stroke="#5B6770" stroke-width="1.5" stroke-miterlimit="10"/>
<path d="M157.55 120.04L179.18 140.96" stroke="#5B6770" stroke-width="1.5" stroke-miterlimit="10"/>
<path d="M132.94 80.27C135.828 80.27 138.17 77.9284 138.17 75.0399C138.17 72.1515 135.828 69.8099 132.94 69.8099C130.052 69.8099 127.71 72.1515 127.71 75.0399C127.71 77.9284 130.052 80.27 132.94 80.27Z" stroke="#5B6770" stroke-width="1.5" stroke-miterlimit="10"/>
<path d="M116.78 132.56C119.668 132.56 122.01 130.218 122.01 127.33C122.01 124.442 119.668 122.1 116.78 122.1C113.891 122.1 111.55 124.442 111.55 127.33C111.55 130.218 113.891 132.56 116.78 132.56Z" stroke="#5B6770" stroke-width="1.5" stroke-miterlimit="10"/>
<path d="M130.95 166.2C135.18 166.2 138.61 162.771 138.61 158.54C138.61 154.31 135.18 150.88 130.95 150.88C126.719 150.88 123.29 154.31 123.29 158.54C123.29 162.771 126.719 166.2 130.95 166.2Z" stroke="#5B6770" stroke-width="1.5" stroke-miterlimit="10"/>
<path d="M182.42 149.9C185.308 149.9 187.65 147.558 187.65 144.67C187.65 141.782 185.308 139.44 182.42 139.44C179.531 139.44 177.19 141.782 177.19 144.67C177.19 147.558 179.531 149.9 182.42 149.9Z" stroke="#5B6770" stroke-width="1.5" stroke-miterlimit="10"/>
</svg>
