<svg width="300" height="224" viewBox="0 0 300 224" fill="none" xmlns="http://www.w3.org/2000/svg">
<path d="M152.59 102.73L169.7 72.36" stroke="#5B6770" stroke-width="1.5" stroke-miterlimit="10"/>
<path d="M173.29 73.58C177.647 73.58 181.18 70.0475 181.18 65.69C181.18 61.3324 177.647 57.8 173.29 57.8C168.932 57.8 165.4 61.3324 165.4 65.69C165.4 70.0475 168.932 73.58 173.29 73.58Z" stroke="#5B6770" stroke-width="1.5" stroke-miterlimit="10"/>
<path d="M154.4 102.93H140.83C138.87 102.93 137.28 104.52 137.28 106.48V120.04C137.28 122 138.87 123.59 140.83 123.59H154.4C156.36 123.59 157.95 122 157.95 120.04V106.47C157.95 104.52 156.36 102.93 154.4 102.93Z" stroke="#5B6770" stroke-width="1.5" stroke-miterlimit="10"/>
<path d="M140.83 102.93L134.58 79.61" stroke="#5B6770" stroke-width="1.5" stroke-miterlimit="10"/>
<path d="M137.26 112.35L121.52 124.72" stroke="#5B6770" stroke-width="1.5" stroke-miterlimit="10"/>
<path d="M145.22 123.52L134.19 151.88" stroke="#5B6770" stroke-width="1.5" stroke-miterlimit="10"/>
<path d="M157.95 120.04L179.58 140.96" stroke="#5B6770" stroke-width="1.5" stroke-miterlimit="10"/>
<path d="M133.34 80.27C136.228 80.27 138.57 77.9284 138.57 75.0399C138.57 72.1515 136.228 69.8099 133.34 69.8099C130.451 69.8099 128.11 72.1515 128.11 75.0399C128.11 77.9284 130.451 80.27 133.34 80.27Z" stroke="#5B6770" stroke-width="1.5" stroke-miterlimit="10"/>
<path d="M117.18 132.56C120.068 132.56 122.41 130.218 122.41 127.33C122.41 124.442 120.068 122.1 117.18 122.1C114.292 122.1 111.95 124.442 111.95 127.33C111.95 130.218 114.292 132.56 117.18 132.56Z" stroke="#5B6770" stroke-width="1.5" stroke-miterlimit="10"/>
<path d="M131.35 166.2C135.58 166.2 139.01 162.771 139.01 158.54C139.01 154.31 135.58 150.88 131.35 150.88C127.119 150.88 123.69 154.31 123.69 158.54C123.69 162.771 127.119 166.2 131.35 166.2Z" stroke="#5B6770" stroke-width="1.5" stroke-miterlimit="10"/>
<path d="M182.82 149.9C185.708 149.9 188.05 147.558 188.05 144.67C188.05 141.782 185.708 139.44 182.82 139.44C179.932 139.44 177.59 141.782 177.59 144.67C177.59 147.558 179.932 149.9 182.82 149.9Z" stroke="#5B6770" stroke-width="1.5" stroke-miterlimit="10"/>
</svg>
