<svg viewBox="0 0 24 24" fill="none" xmlns="http://www.w3.org/2000/svg">
  <path fill-rule="evenodd" clip-rule="evenodd"
    d="M12 1C18.0751 1 23 5.92487 23 12C23 18.0751 18.0751 23 12 23C5.92487 23 1 18.0751 1 12C1 5.92487 5.92487 1 12 1ZM3.05664 13C3.46968 16.7357 6.16858 19.78 9.72363 20.707C8.19836 18.4131 7.27496 15.7618 7.05078 13H3.05664ZM16.9492 13C16.725 15.762 15.8008 18.413 14.2754 20.707C17.8309 19.7803 20.5303 16.736 20.9434 13H16.9492ZM9.05957 13C9.31114 15.7115 10.3318 18.2939 12 20.4443C13.6682 18.2939 14.6881 15.7115 14.9395 13H9.05957ZM14.2754 3.29199C15.8011 5.58613 16.725 8.23777 16.9492 11H20.9434C20.5303 7.26391 17.831 4.21868 14.2754 3.29199ZM12 3.55469C10.3315 5.70528 9.31108 8.28819 9.05957 11H14.9395C14.6881 8.2882 13.6685 5.70527 12 3.55469ZM9.72363 3.29199C6.16847 4.21897 3.46969 7.26423 3.05664 11H7.05078C7.27498 8.23794 8.19809 5.58604 9.72363 3.29199Z"
  />
</svg>
