<?xml version="1.0" encoding="utf-8"?>
<svg xmlns="http://www.w3.org/2000/svg" id="Ebene_1" style="enable-background:new 0 0 2000 270.2;" version="1.1" viewBox="0 0 2000 270.2" x="0px" y="0px">
<style type="text/css">
	.st0{fill:#2D2D5A;}
	.st1{fill:url(#SVGID_1_);}
	.st2{fill:url(#SVGID_00000065046659236182986930000013006569606988255418_);}
	.st3{fill:url(#SVGID_00000183227170700349980760000015523708608431400088_);}
	.st4{fill:#00AFB7;}
</style>
<g>
	<g>
		<path class="st0" d="M956.2,126.5l76.1,76.1l17.9-17.9L992,126.5l58.2-58.2l-17.9-17.9L956.2,126.5z"/>
		<path class="st0" d="M1197.7,184.7l17.9,17.9l76.1-76.1l-76.1-76.1l-17.9,17.9l58.2,58.2L1197.7,184.7z"/>
		<g>
			<linearGradient gradientUnits="userSpaceOnUse" id="SVGID_1_" x1="962.5146" x2="1099.547" y1="167.6553" y2="140.5804">
				<stop offset="0" style="stop-color:#2D2D5A"/>
				<stop offset="1" style="stop-color:#00AFB7"/>
			</linearGradient>
			<path class="st1" d="M1181.7,123.7c-20.2-1.4-55.8,3.9-65.8,6.4c22-35.9,58-78.6,90.1-110.6c14.7-14.7-58.7-29.4-73.4-10.7&#xA;				c-38.1,48.5-58.7,98.8-75,145.5c-5.3,15.1,11,28,23.4,22.5c20.7-9.2,35.9-13.6,58.1-19.2c-15.8,20.5-34.8,57.7-44.6,103.6&#xA;				c-1.7,8.1,7.5,12.5,10.9,5.2c26.4-57.4,64.7-105.5,84.1-123.1C1197,136.4,1192.1,123.8,1181.7,123.7z"/>
		</g>
		<g>
			
				<linearGradient gradientUnits="userSpaceOnUse" id="SVGID_00000000907407162079476510000017030651821587954309_" x1="1040.5161" x2="1130.5818" y1="218.5163" y2="74.3007">
				<stop offset="0" style="stop-color:#2D2D5A"/>
				<stop offset="1" style="stop-color:#00AFB7"/>
			</linearGradient>
			<path d="M1204.6,10.2&#xA;				c-13.2-10.2-60.5-16-71.9-1.4c0,0,0,0,0,0c-7.4,9.6-14.2,19.1-20.4,28.6c-19,29.2-32.6,58.7-43.7,87.3&#xA;				c-8.6,24.9,27.2,10.8,47.5,5.4c22-35.9,58-78.6,90.1-110.6C1209.3,16.3,1208.2,13.1,1204.6,10.2z" style="fill:url(#SVGID_00000000907407162079476510000017030651821587954309_);"/>
		</g>
		<g>
			
				<linearGradient gradientUnits="userSpaceOnUse" id="SVGID_00000092433069980025502290000006664295074255503290_" x1="1212.6616" x2="1129.7791" y1="64.2799" y2="202.4175">
				<stop offset="0" style="stop-color:#2D2D5A"/>
				<stop offset="1" style="stop-color:#00AFB7"/>
			</linearGradient>
			<path d="M1139,157.6&#xA;				c-15.8,20.5-34.8,57.7-44.6,103.6c-1.7,8.1,7.5,12.5,10.9,5.2c20.8-45.1,48.8-84.4,69.3-107.7&#xA;				C1183.6,149.3,1148.4,155.2,1139,157.6z" style="fill:url(#SVGID_00000092433069980025502290000006664295074255503290_);"/>
		</g>
	</g>
	<g>
		<polygon class="st0" points="358.2,97.3 396.6,97.3 396.6,179.6 415.3,179.6 415.3,97.3 453.6,97.3 453.6,79.6 358.2,79.6"/>
		<polygon class="st0" points="0,97.3 38.3,97.3 38.3,179.6 57.1,179.6 57.1,97.3 95.4,97.3 95.4,79.6 0,79.6"/>
		<polygon class="st0" points="742.6,179.6 762.3,179.6 762.3,136.6 812.8,136.6 812.8,118.8 762.3,118.8 762.3,97.3 823.1,97.3 &#xA;			823.1,79.6 742.6,79.6"/>
		<polygon class="st0" points="839.9,79.6 839.9,97.3 878.2,97.3 878.2,179.6 896.9,179.6 896.9,97.3 935.3,97.3 935.3,79.6"/>
		<path class="st0" d="M216.1,82.2c-30.4-6.7-61.8-6.9-92.3-0.5c-8.5,1.9-11.9,6.5-11.9,13.2v84.6h19v-43h76.7v43h18.9V95&#xA;			C226.4,86.9,221.4,83.4,216.1,82.2z M207.5,119.4h-76.7v-15.9c0.1-2.2,1.5-4,3.5-4.7c16.6-5.2,54.2-5.4,70.1,0.1&#xA;			c1.8,0.7,3,2.3,3.1,4.2V119.4z"/>
		<path class="st0" d="M346.9,124.5c-12.5-2.2-27.6-3.6-41.2-4.3c2-1.2,3.7-2.7,5.2-4.4c9.7-10.6,32.3-35.8,32.3-35.8l-25-0.1&#xA;			c0,0-17.8,19.8-27.3,30.4c-4.8,5.6-11.7,8.9-19,9.2H266l-0.1-39.5H247v99.5h18.9l0.1-42.8c0,0,39.4-2.1,68.8,4.5&#xA;			c2.1,0.4,3.6,2.2,3.6,4.4v34h18.9v-42.2C357.3,129.1,352.3,125.5,346.9,124.5z"/>
		<path class="st0" d="M571.6,119.5h-81.7c-0.2,0-0.3,0-0.5,0c-1.6-0.1-2.7-1.4-2.6-3v-12.3c-0.2-2.5,1.5-4.9,4-5.4&#xA;			c16.6-5.2,56.9-6.2,90.5,3.7V83.9c-23.3-5-39.3-7.1-56.2-7.1c-16.2,0-32.3,1.9-48,5.6c-4.7,1-9.4,5.1-9.4,12.5v30.7&#xA;			c0,6.3,4.1,10.9,10.9,10.9h81.7c0.2,0,0.3,0,0.5,0c1.6,0.1,2.7,1.4,2.6,3v15.9c0.2,2.6-1.5,4.9-4,5.4c-16.7,5.3-57.7,6.2-91.7-4.1&#xA;			v18.7c23.8,5.1,40.1,7.3,57.3,7.3c16.2,0,32.3-1.9,48-5.6c4.7-1,9.4-5.1,9.4-12.5v-34.1C582.5,124.2,578.4,119.5,571.6,119.5z"/>
		<path class="st0" d="M710.3,81.9c-28.5-6.6-64.5-7-94.5-0.5c-8.5,1.9-11.9,6.5-11.9,13.2v70.1c0,8.1,5.1,11.6,10.4,12.8&#xA;			c28.5,6.6,64.5,7,94.5,0.5c8.5-1.9,11.9-6.5,11.9-13.2V94.7C720.6,86.7,715.6,83.1,710.3,81.9z M701.7,156.2c0,2.2-1.4,4-3.5,4.7&#xA;			c-16.6,5.2-56.4,5.4-72.3-0.1c-1.8-0.7-3-2.3-3.1-4.2v-53.3c0-2.2,1.4-4,3.5-4.7c16.6-5.2,56.4-5.4,72.3,0.1&#xA;			c1.8,0.7,3,2.3,3.1,4.2V156.2z"/>
	</g>
	<g>
		<path class="st4" d="M1402.3,83.3c-7.8-4.4-16.7-6.6-26.7-6.6c-10.3,0-19.5,2.2-27.7,6.7c-8.2,4.5-14.7,10.7-19.5,18.7&#xA;			c-4.8,8-7.2,17.3-7.2,27.8c0,10.5,2.5,19.8,7.5,27.7c5,8,11.9,14.2,20.8,18.6c8.9,4.5,19.3,6.7,31.3,6.7c9.5,0,18.2-1.5,26.3-4.5&#xA;			c8.1-3,14.6-7.2,19.6-12.6l-15.4-18.3c-8,8.2-17.6,12.2-28.6,12.2c-6,0-11.4-1.1-16.1-3.5c-4.7-2.3-8.3-5.7-10.9-10.3&#xA;			c-1.3-2.2-2.2-4.6-2.8-7.2h74.4V130v-1v-0.2c0-10.4-2.2-19.5-6.6-27.2C1416.3,93.8,1410.1,87.7,1402.3,83.3z M1363.1,103.3&#xA;			c3.6-2.4,7.7-3.5,12.3-3.5c4.7,0,8.7,1.1,12,3.4c3.3,2.2,5.8,5.4,7.6,9.4c1.1,2.4,1.8,5.2,2.2,8.2h-44.8c0.5-2.7,1.2-5.1,2.2-7.3&#xA;			C1356.7,109.1,1359.5,105.7,1363.1,103.3z"/>
		<path class="st4" d="M1506.9,76.7c-4.7,0-9.6,1-14.6,2.9c-5,1.9-9.3,5.4-13,10.4c-1.4,1.9-2.5,4-3.5,6.4V79.9h-30.2v100h30.4V130&#xA;			c0-6.7,1-12.1,3.1-16.3c2-4.1,4.7-7.2,8-9.2c3.3-2,6.8-3,10.5-3c5.3,0,9.4,1.7,12.5,5.1c3.1,3.4,4.6,8.5,4.6,15.4v57.8h30.4v-60.9&#xA;			c0-13.7-3.4-24.1-10.3-31.4C1527.9,80.3,1518.6,76.7,1506.9,76.7z"/>
		<path class="st4" d="M1643.1,83.3c-7.8-4.4-16.7-6.6-26.7-6.6c-10.3,0-19.5,2.2-27.7,6.7c-8.2,4.5-14.7,10.7-19.5,18.7&#xA;			c-4.8,8-7.2,17.3-7.2,27.8c0,10.5,2.5,19.8,7.5,27.7c5,8,11.9,14.2,20.8,18.6c8.9,4.5,19.3,6.7,31.3,6.7c9.5,0,18.2-1.5,26.3-4.5&#xA;			c8.1-3,14.6-7.2,19.6-12.6l-15.4-18.3c-8,8.2-17.6,12.2-28.6,12.2c-6,0-11.4-1.1-16.1-3.5c-4.7-2.3-8.3-5.7-10.9-10.3&#xA;			c-1.3-2.2-2.2-4.6-2.8-7.2h74.4V130v-1v-0.2c0-10.4-2.2-19.5-6.6-27.2C1657.1,93.8,1650.9,87.7,1643.1,83.3z M1603.9,103.3&#xA;			c3.6-2.4,7.7-3.5,12.3-3.5c4.7,0,8.7,1.1,12,3.4c3.3,2.2,5.8,5.4,7.6,9.4c1.1,2.4,1.8,5.2,2.2,8.2h-44.8c0.5-2.7,1.2-5.1,2.2-7.3&#xA;			C1597.5,109.1,1600.3,105.7,1603.9,103.3z"/>
		<path class="st4" d="M1733.2,81c-5,1.9-9.3,5.4-13,10.4c-1.4,1.9-2.5,4-3.6,6.4V79.9h-30.2v100h30.4v-43c0-7.5,1.1-13.5,3.5-18.1&#xA;			c2.3-4.6,5.6-8,9.9-10.2c4.3-2.2,9.5-3.3,15.7-3.3h5.9V78.1h-4.1C1743,78.1,1738.2,79.1,1733.2,81z"/>
		<path class="st4" d="M1969.4,79.9l-26.3,70.3l-26.3-70.3h-31.2l42.6,100l-1.2,3.2c-1.4,3.7-3.5,6.3-6.2,8c-2.7,1.6-6,2.5-9.8,2.5&#xA;			h-12.2v24.7h14.2c10,0,18.2-2.4,24.8-7.3c6.5-4.9,11.8-12.1,15.9-21.7L2000,79.9H1969.4z"/>
		<path class="st4" d="M1841.6,79.9v12.9c-3.3-5-7.6-8.9-12.8-11.7c-5.4-2.9-11.8-4.3-19.1-4.3c-9.1,0-17.4,2.2-24.8,6.6&#xA;			c-7.5,4.4-13.5,10.5-18,18.2c-4.5,7.8-6.8,16.8-6.8,27.2c0,10.1,2.2,19.1,6.7,26.8c4.5,7.8,10.5,13.8,18,18&#xA;			c7.6,4.3,15.8,6.4,24.8,6.4c8.5,0,15.8-1.8,21.8-5.5c4-2.5,7.4-5.6,10.2-9.2v2.7c0,6.2-1.2,11.4-3.6,15.6c-2.4,4.2-6,7.4-10.6,9.7&#xA;			c-4.5,2.2-9.9,3.2-16.1,3.2h-25.7v24.7c0.4,0,26.5,0,26.9,0c11.8,0,22.2-2.2,31.2-6.7c8.9-4.5,15.9-10.8,20.9-19&#xA;			c5-8.2,7.5-18,7.5-29.3V79.9H1841.6z M1841.4,140c-0.8,2.2-1.9,4.2-3.4,5.9c-2.4,2.9-5.3,5.1-8.8,6.7c-3.5,1.6-7.4,2.4-11.7,2.4&#xA;			c-5.3,0-9.9-1.1-13.8-3.4c-3.9-2.2-7-5.4-9.2-9.4c-2.2-4-3.3-8.6-3.3-13.7c0-5,1.1-9.5,3.2-13.6c2.1-4.1,5-7.3,8.8-9.8&#xA;			c3.7-2.4,8.2-3.6,13.3-3.6c4.7,0,9,1.1,12.7,3.4c3.7,2.2,6.7,5.4,8.9,9.6c2.2,4.1,3.3,9.2,3.3,15.1V140z"/>
	</g>
</g>
</svg>