<svg width="1392" height="534" viewBox="0 0 1392 534" fill="none" xmlns="http://www.w3.org/2000/svg">
  <path
    d="M100.133 63.2C99.0666 64.5333 98.8 117.467 98.9333 262.133L99.3333 459.333L272.4 459.733C367.467 459.867 445.333 459.6 445.333 458.933C445.333 458.4 423.6 436.267 396.933 409.6L348.533 361.333H276.267C228.8 361.333 202.933 360.8 201.2 360C198.667 358.667 198.667 356.133 198.667 261.6C198.667 187.867 199.067 164.133 200.267 162.933C201.467 161.733 247.2 161.333 398 161.333C548.8 161.333 594.533 160.933 595.733 159.733C596.933 158.533 597.333 146 597.333 111.867C597.333 71.4667 597.067 65.2 595.2 63.4667C593.333 61.6 569.067 61.3333 347.467 61.3333C142.133 61.3333 101.467 61.6 100.133 63.2Z"
    fill="#2D2C2C" />
  <path
    d="M890.933 260.667C878.133 264.667 869.333 276.133 866.533 292.533C864.4 304.933 866.4 318.933 871.6 329.2C883.6 352.8 920.4 353.867 934.267 330.8C945.733 311.733 942 279.2 927.067 266.8C918 259.333 903.2 256.8 890.933 260.667ZM917.2 272.933C926 279.467 930.267 292.4 928.933 308.4C927.467 326.133 919.333 336 905.467 337.067C891.6 338 883.2 331.467 879.333 316.533C874.667 298.533 878.8 280.933 889.6 272.933C896.533 267.733 910.133 267.733 917.2 272.933Z"
    fill="#2D2C2C" />
  <path
    d="M1230.13 260.133C1218.8 262.8 1210.67 272.4 1210.67 283.067C1210.67 296.933 1217.2 303.333 1236.67 308.133C1250.27 311.6 1256 315.733 1256 322.267C1255.87 336.133 1239.2 341.6 1221.87 333.467C1217.33 331.333 1213.2 328.933 1212.8 328.133C1210.67 324.8 1209.33 327.067 1209.33 333.733C1209.33 340.933 1209.33 340.933 1215.07 343.333C1218.67 344.8 1225.47 345.867 1234.13 346.267C1245.87 346.933 1248.27 346.667 1252.93 344.267C1266.4 337.333 1271.6 321.467 1264.27 309.067C1261.6 304.4 1254.67 300.8 1243.33 298C1226 293.733 1222.67 291.333 1222.67 282.667C1222.67 273.867 1228.67 269.333 1240.27 269.333C1247.47 269.333 1257.07 272.8 1261.6 276.933C1263.87 278.933 1264 278.667 1264 271.733C1264 264.933 1263.73 264.267 1260.4 262.8C1255.6 260.933 1243.33 258.667 1238.8 258.8C1236.93 258.933 1232.93 259.467 1230.13 260.133Z"
    fill="#2D2C2C" />
  <path
    d="M651.333 261.6C651.067 262.533 644.4 281.733 636.8 304.267L622.8 345.333H628.667H634.4L638.267 333.6L642.267 322L658.4 321.6L674.533 321.2L678.133 333.333L681.733 345.333H688H694.267L680 302.933L665.733 260.667L658.8 260.267C654.133 260 651.733 260.4 651.333 261.6ZM664.667 292.133C668 301.867 670.667 310.4 670.667 310.933C670.667 311.467 665.067 312 658.133 312H645.733L651.733 292.667C655.067 282.133 658 273.6 658.267 273.867C658.533 274.133 661.467 282.267 664.667 292.133Z"
    fill="#2D2C2C" />
  <path
    d="M709.6 293.6C710 331.333 710.667 333.867 720.133 341.6C729.6 349.2 748.933 349.467 760.133 342.133C769.333 336 770 332.933 770.4 294.267L770.8 260H765.467H760.133L759.733 292.267C759.333 328 758.667 331.2 750.667 335.333C744.8 338.4 733.2 338 728.8 334.533C722.267 329.467 722 327.867 721.333 293.333L720.667 260.667L714.933 260.267L709.067 259.867L709.6 293.6Z"
    fill="#2D2C2C" />
  <path
    d="M788 265.333V270.667H802H816V308V345.333H821.333H826.667L826.933 308.267L827.333 271.333L841.733 270.933L856 270.533V265.333V260H822H788V265.333Z"
    fill="#2D2C2C" />
  <path
    d="M962.667 302.667V345.333H968H973.333V324.667V304H992.667H1012V324.667V345.333H1018H1024V302.533V259.867L1018.4 260.267L1012.67 260.667L1012.27 277.733L1011.87 294.8L992.933 294.4L974 294L973.6 276.933L973.2 260H968H962.667V302.667Z"
    fill="#2D2C2C" />
  <path
    d="M1055.47 302.133C1047.73 325.2 1041.33 344.4 1041.33 344.8C1041.33 345.067 1043.87 345.333 1047.07 345.333H1052.67L1056.4 333.333L1060 321.2L1076.27 321.6L1092.53 322L1096.13 333.333L1099.73 344.667L1106 345.067C1110.8 345.333 1112.13 345.067 1111.73 343.733C1111.33 342.8 1104.8 323.6 1097.2 301.067L1083.33 260H1076.53H1069.6L1055.47 302.133ZM1076.93 311.733C1070.4 311.867 1064.67 311.867 1064.4 311.467C1063.87 311.067 1070.93 287.867 1075.47 274.667C1075.87 273.6 1079.07 281.333 1082.53 292L1088.8 311.333L1076.93 311.733Z"
    fill="#2D2C2C" />
  <path
    d="M1128.27 295.067L1128.67 330.267L1132.27 335.6C1137.47 343.6 1146 347.333 1158.8 347.2C1175.47 347.067 1184.8 340 1188 324.933C1188.8 320.8 1189.2 306.133 1189.07 289.333L1188.67 260.667L1183.07 260.267L1177.33 259.867V291.333C1177.33 324.667 1176.67 328.667 1170.8 334C1168.67 335.733 1165.33 336.667 1159.6 337.067C1152.53 337.467 1150.67 337.067 1146.67 334.4C1139.47 329.6 1138.8 325.867 1138.8 290.933L1138.67 260H1133.2H1127.87L1128.27 295.067Z"
    fill="#2D2C2C" />
  <path
    d="M397.333 360.667L496.667 460H571.333H646L546.667 360.667L447.333 261.333H372.667H298L397.333 360.667Z"
    fill="#C41631" />
  <path d="M796 362V369.333H804H812V362V354.667H804H796V362Z" fill="#2D2C2C" />
  <path d="M822.667 362V369.333H830.667H838.667V362V354.667H830.667H822.667V362Z" fill="#2D2C2C" />
  <path
    d="M720.667 379.2C712.267 381.867 707.333 384.8 702.667 390.133C695.333 398.533 692.8 405.733 692.8 418.667C692.667 438 698.4 449.067 712.133 456.667C718.933 460.4 720.267 460.667 734 460.667C744.667 460.667 750.933 460 757.067 458.133L765.333 455.6V435.733V416H747.333H729.333V423.333V430.667H737.333H745.333V438.667V446.667H739.333C726.8 446.667 718.4 440.667 715.067 429.467C712.667 420.8 713.333 411.867 717.2 404.267C724 390.933 741.867 388.667 756.933 399.467L763.333 404L763.733 395.2C764 390.267 763.867 385.467 763.467 384.533C763.067 383.6 758.8 381.6 753.867 380.133C743.867 376.933 729.067 376.533 720.667 379.2Z"
    fill="#2D2C2C" />
  <path
    d="M784.267 410.933C784.667 442.267 784.8 443.467 787.733 448.4C792.933 456.533 801.067 460.4 814.8 461.067C830 461.867 838.133 459.2 844.533 451.733C850.933 444.267 852 437.867 852 406V378.667H841.333H830.667V408.533C830.667 438 830.667 438.533 827.6 442.133C825.067 445.067 823.2 445.733 818.267 445.867C813.2 446 811.467 445.333 808.4 442.267L804.667 438.667L804.267 408.667L803.867 378.667H793.867H783.867L784.267 410.933Z"
    fill="#2D2C2C" />
  <path
    d="M872 419.333V460H881.333H890.667L890.933 432.8L891.333 405.6L906.4 432.8L921.6 460H931.467H941.333V419.333V378.667H932H922.667L922.4 401.333L922 424L909.467 401.333L896.8 378.667H884.4H872V419.333Z"
    fill="#2D2C2C" />
  <path
    d="M953.333 386.667V394.667H965.333H977.333V427.333V460H988H998.667V427.333V394.667H1010.67H1022.67V386.667V378.667H988H953.333V386.667Z"
    fill="#2D2C2C" />
  <path
    d="M1034.67 419.333V460H1045.33H1056V442V424H1069.33H1082.67V442V460H1093.33H1104V419.333V378.667H1093.33H1082.67V393.333V408H1069.33H1056V393.333V378.667H1045.33H1034.67V419.333Z"
    fill="#2D2C2C" />
  <path
    d="M1125.33 419.333V460H1152.67H1180.13L1179.73 452.267L1179.33 444.667L1162.4 444.267L1145.33 443.867V434V424H1161.33H1177.47L1177.07 416.267L1176.67 408.667L1161.07 408.267L1145.33 407.867V401.333V394.667H1162.67H1180V386.667V378.667H1152.67H1125.33V419.333Z"
    fill="#2D2C2C" />
  <path
    d="M1197.33 419.2V460H1208H1218.67V445.333V430.667L1222.4 430.8C1225.47 430.8 1227.73 433.2 1236.8 445.067L1247.47 459.333L1259.73 459.733C1266.53 459.867 1272 459.733 1272 459.333C1272 458.8 1266.27 451.333 1259.2 442.533L1246.53 426.533L1252.4 420.933C1265.07 409.2 1264 390.4 1250.27 382.533C1245.07 379.6 1243.2 379.333 1221.07 378.933L1197.33 378.4V419.2ZM1233.2 394.8C1240.53 397.333 1242.27 405.2 1237.07 411.333C1234.67 414 1232.4 414.933 1226.4 415.6L1218.67 416.4V404.8V393.333H1223.87C1226.67 393.333 1230.8 394 1233.2 394.8Z"
    fill="#2D2C2C" />
</svg>
