<svg width="1174" height="401" viewBox="0 0 1174 401" fill="none" xmlns="http://www.w3.org/2000/svg">
<g clip-path="url(#clip0_1_23)">
<path d="M2.13329 2.19998C1.06663 3.53329 0.799959 56.4666 0.933292 201.133L1.33329 398.333L174.4 398.733C269.467 398.867 347.333 398.6 347.333 397.933C347.333 397.4 325.6 375.267 298.933 348.6L250.533 300.333H178.267C130.8 300.333 104.933 299.8 103.2 299C100.667 297.667 100.667 295.133 100.667 200.6C100.667 126.867 101.067 103.133 102.267 101.933C103.467 100.733 149.2 100.333 300 100.333C450.8 100.333 496.533 99.9333 497.733 98.7333C498.933 97.5333 499.333 85 499.333 50.8666C499.333 10.4666 499.067 4.19998 497.2 2.46664C495.333 0.599976 471.067 0.333313 249.467 0.333313C44.1333 0.333313 3.46663 0.599976 2.13329 2.19998Z" fill="white"/>
<path d="M792.933 199.667C780.133 203.667 771.333 215.133 768.533 231.533C766.4 243.933 768.4 257.933 773.6 268.2C785.6 291.8 822.4 292.867 836.267 269.8C847.733 250.733 844 218.2 829.067 205.8C820 198.333 805.2 195.8 792.933 199.667ZM819.2 211.933C828 218.467 832.267 231.4 830.933 247.4C829.467 265.133 821.333 275 807.467 276.067C793.6 277 785.2 270.467 781.333 255.533C776.667 237.533 780.8 219.933 791.6 211.933C798.533 206.733 812.133 206.733 819.2 211.933Z" fill="white"/>
<path d="M1132.13 199.133C1120.8 201.8 1112.67 211.4 1112.67 222.067C1112.67 235.933 1119.2 242.333 1138.67 247.133C1152.27 250.6 1158 254.733 1158 261.267C1157.87 275.133 1141.2 280.6 1123.87 272.467C1119.33 270.333 1115.2 267.933 1114.8 267.133C1112.67 263.8 1111.33 266.067 1111.33 272.733C1111.33 279.933 1111.33 279.933 1117.07 282.333C1120.67 283.8 1127.47 284.867 1136.13 285.267C1147.87 285.933 1150.27 285.667 1154.93 283.267C1168.4 276.333 1173.6 260.467 1166.27 248.067C1163.6 243.4 1156.67 239.8 1145.33 237C1128 232.733 1124.67 230.333 1124.67 221.667C1124.67 212.867 1130.67 208.333 1142.27 208.333C1149.47 208.333 1159.07 211.8 1163.6 215.933C1165.87 217.933 1166 217.667 1166 210.733C1166 203.933 1165.73 203.267 1162.4 201.8C1157.6 199.933 1145.33 197.667 1140.8 197.8C1138.93 197.933 1134.93 198.467 1132.13 199.133Z" fill="white"/>
<path d="M553.333 200.6C553.067 201.533 546.4 220.733 538.8 243.267L524.8 284.333H530.667H536.4L540.267 272.6L544.267 261L560.4 260.6L576.533 260.2L580.133 272.333L583.733 284.333H590H596.267L582 241.933L567.733 199.667L560.8 199.267C556.133 199 553.733 199.4 553.333 200.6ZM566.667 231.133C570 240.867 572.667 249.4 572.667 249.933C572.667 250.467 567.067 251 560.133 251H547.733L553.733 231.667C557.067 221.133 560 212.6 560.267 212.867C560.533 213.133 563.467 221.267 566.667 231.133Z" fill="white"/>
<path d="M611.6 232.6C612 270.333 612.667 272.867 622.133 280.6C631.6 288.2 650.933 288.467 662.133 281.133C671.333 275 672 271.933 672.4 233.267L672.8 199H667.467H662.133L661.733 231.267C661.333 267 660.667 270.2 652.667 274.333C646.8 277.4 635.2 277 630.8 273.533C624.267 268.467 624 266.867 623.333 232.333L622.667 199.667L616.933 199.267L611.067 198.867L611.6 232.6Z" fill="white"/>
<path d="M690 204.333V209.667H704H718V247V284.333H723.333H728.667L728.933 247.267L729.333 210.333L743.733 209.933L758 209.533V204.333V199H724H690V204.333Z" fill="white"/>
<path d="M864.667 241.667V284.333H870H875.333V263.667V243H894.667H914V263.667V284.333H920H926V241.533V198.867L920.4 199.267L914.667 199.667L914.267 216.733L913.867 233.8L894.933 233.4L876 233L875.6 215.933L875.2 199H870H864.667V241.667Z" fill="white"/>
<path d="M957.467 241.133C949.733 264.2 943.333 283.4 943.333 283.8C943.333 284.067 945.867 284.333 949.067 284.333H954.667L958.4 272.333L962 260.2L978.267 260.6L994.533 261L998.133 272.333L1001.73 283.667L1008 284.067C1012.8 284.333 1014.13 284.067 1013.73 282.733C1013.33 281.8 1006.8 262.6 999.2 240.067L985.333 199H978.533H971.6L957.467 241.133ZM978.933 250.733C972.4 250.867 966.667 250.867 966.4 250.467C965.867 250.067 972.933 226.867 977.467 213.667C977.867 212.6 981.067 220.333 984.533 231L990.8 250.333L978.933 250.733Z" fill="white"/>
<path d="M1030.27 234.067L1030.67 269.267L1034.27 274.6C1039.47 282.6 1048 286.333 1060.8 286.2C1077.47 286.067 1086.8 279 1090 263.933C1090.8 259.8 1091.2 245.133 1091.07 228.333L1090.67 199.667L1085.07 199.267L1079.33 198.867V230.333C1079.33 263.667 1078.67 267.667 1072.8 273C1070.67 274.733 1067.33 275.667 1061.6 276.067C1054.53 276.467 1052.67 276.067 1048.67 273.4C1041.47 268.6 1040.8 264.867 1040.8 229.933L1040.67 199H1035.2H1029.87L1030.27 234.067Z" fill="white"/>
<path d="M299.333 299.667L398.667 399H473.333H548L448.667 299.667L349.333 200.333H274.667H200L299.333 299.667Z" fill="#C41631"/>
<path d="M698 301V308.333H706H714V301V293.667H706H698V301Z" fill="white"/>
<path d="M724.667 301V308.333H732.667H740.667V301V293.667H732.667H724.667V301Z" fill="white"/>
<path d="M622.667 318.2C614.267 320.867 609.333 323.8 604.667 329.133C597.333 337.533 594.8 344.733 594.8 357.667C594.667 377 600.4 388.067 614.133 395.667C620.933 399.4 622.267 399.667 636 399.667C646.667 399.667 652.933 399 659.067 397.133L667.333 394.6V374.733V355H649.333H631.333V362.333V369.667H639.333H647.333V377.667V385.667H641.333C628.8 385.667 620.4 379.667 617.067 368.467C614.667 359.8 615.333 350.867 619.2 343.267C626 329.933 643.867 327.667 658.933 338.467L665.333 343L665.733 334.2C666 329.267 665.867 324.467 665.467 323.533C665.067 322.6 660.8 320.6 655.867 319.133C645.867 315.933 631.067 315.533 622.667 318.2Z" fill="white"/>
<path d="M686.267 349.933C686.667 381.267 686.8 382.467 689.733 387.4C694.933 395.533 703.067 399.4 716.8 400.067C732 400.867 740.133 398.2 746.533 390.733C752.933 383.267 754 376.867 754 345V317.667H743.333H732.667V347.533C732.667 377 732.667 377.533 729.6 381.133C727.067 384.067 725.2 384.733 720.267 384.867C715.2 385 713.467 384.333 710.4 381.267L706.667 377.667L706.267 347.667L705.867 317.667H695.867H685.867L686.267 349.933Z" fill="white"/>
<path d="M774 358.333V399H783.333H792.667L792.933 371.8L793.333 344.6L808.4 371.8L823.6 399H833.467H843.333V358.333V317.667H834H824.667L824.4 340.333L824 363L811.467 340.333L798.8 317.667H786.4H774V358.333Z" fill="white"/>
<path d="M855.333 325.667V333.667H867.333H879.333V366.333V399H890H900.667V366.333V333.667H912.667H924.667V325.667V317.667H890H855.333V325.667Z" fill="white"/>
<path d="M936.667 358.333V399H947.333H958V381V363H971.333H984.667V381V399H995.333H1006V358.333V317.667H995.333H984.667V332.333V347H971.333H958V332.333V317.667H947.333H936.667V358.333Z" fill="white"/>
<path d="M1027.33 358.333V399H1054.67H1082.13L1081.73 391.267L1081.33 383.667L1064.4 383.267L1047.33 382.867V373V363H1063.33H1079.47L1079.07 355.267L1078.67 347.667L1063.07 347.267L1047.33 346.867V340.333V333.667H1064.67H1082V325.667V317.667H1054.67H1027.33V358.333Z" fill="white"/>
<path d="M1099.33 358.2V399H1110H1120.67V384.333V369.667L1124.4 369.8C1127.47 369.8 1129.73 372.2 1138.8 384.067L1149.47 398.333L1161.73 398.733C1168.53 398.867 1174 398.733 1174 398.333C1174 397.8 1168.27 390.333 1161.2 381.533L1148.53 365.533L1154.4 359.933C1167.07 348.2 1166 329.4 1152.27 321.533C1147.07 318.6 1145.2 318.333 1123.07 317.933L1099.33 317.4V358.2ZM1135.2 333.8C1142.53 336.333 1144.27 344.2 1139.07 350.333C1136.67 353 1134.4 353.933 1128.4 354.6L1120.67 355.4V343.8V332.333H1125.87C1128.67 332.333 1132.8 333 1135.2 333.8Z" fill="white"/>
</g>
<defs>
<clipPath id="clip0_1_23">
<rect width="1174" height="401" fill="white"/>
</clipPath>
</defs>
</svg>
