<?xml version="1.0" standalone="no"?>
<!DOCTYPE svg PUBLIC "-//W3C//DTD SVG 20010904//EN"
 "http://www.w3.org/TR/2001/REC-SVG-20010904/DTD/svg10.dtd">
<svg version="1.0" xmlns="http://www.w3.org/2000/svg"
 width="400.000000pt" height="122.000000pt" viewBox="0 0 400.000000 122.000000"
 preserveAspectRatio="xMidYMid meet">

<g transform="translate(0.000000,122.000000) scale(0.100000,-0.100000)"
fill="#000000" stroke="none">
<path d="M803 1184 c-339 -41 -661 -144 -739 -237 -74 -88 45 -196 260 -236
l49 -9 -26 22 c-57 48 -55 94 5 139 113 85 342 151 673 194 109 14 208 18 445
18 306 0 444 -11 645 -50 39 -7 71 -12 73 -10 2 1 -36 17 -83 34 -185 67 -422
117 -659 140 -148 15 -506 12 -643 -5z"/>
<path d="M1210 930 c-73 -16 -152 -60 -213 -121 -153 -154 -165 -378 -26 -503
61 -55 121 -76 214 -76 329 0 540 397 327 616 -69 71 -195 106 -302 84z m155
-125 c66 -28 114 -105 115 -185 0 -56 -45 -153 -91 -197 -111 -104 -278 -109
-351 -12 -72 97 -57 220 41 322 80 85 189 112 286 72z"/>
<path d="M2205 763 c-9 -75 -13 -83 -41 -83 -19 0 -24 -5 -24 -27 0 -16 -3
-38 -6 -50 -5 -19 -2 -23 15 -23 14 0 21 -6 21 -20 0 -20 -36 -255 -45 -297
-5 -22 -2 -23 48 -23 l54 0 22 143 c33 213 27 197 67 197 28 0 35 4 39 25 3
14 7 36 10 50 5 23 3 25 -31 25 l-36 0 7 57 c4 31 9 62 12 70 4 10 -8 13 -50
13 l-55 0 -7 -57z"/>
<path d="M1823 670 c-35 -16 -43 -16 -43 -5 0 11 -13 15 -50 15 -43 0 -50 -3
-55 -22 -3 -13 -25 -151 -50 -308 -25 -157 -47 -295 -50 -307 -5 -22 -2 -23
49 -23 l54 0 16 113 c24 159 20 151 64 120 32 -22 45 -24 95 -20 140 12 236
135 225 288 -10 133 -133 205 -255 149z m109 -91 c32 -17 50 -72 39 -119 -12
-52 -34 -86 -74 -110 -57 -35 -115 -23 -142 30 -20 40 -19 76 6 126 33 70 113
104 171 73z"/>
<path d="M2537 676 c-83 -31 -143 -91 -173 -173 -29 -82 -7 -174 55 -226 109
-92 293 -39 365 105 50 100 26 221 -55 275 -47 31 -136 40 -192 19z m122 -101
c103 -53 26 -245 -99 -245 -126 0 -140 177 -20 241 42 23 81 24 119 4z"/>
<path d="M3038 674 c-16 -8 -28 -10 -28 -4 0 6 -24 10 -55 10 -46 0 -55 -3
-55 -17 -1 -10 -16 -109 -34 -220 l-32 -203 53 0 c29 0 53 3 53 8 0 32 43 260
54 287 23 54 85 74 106 35 9 -16 6 -54 -10 -158 -12 -75 -24 -145 -26 -154 -5
-16 2 -18 49 -18 l55 0 17 113 c22 150 32 185 60 213 30 29 70 31 85 4 10 -18
-9 -172 -36 -302 -6 -28 -5 -28 48 -28 l54 0 22 143 c12 78 22 160 22 182 0
49 -31 102 -68 116 -36 14 -120 4 -152 -19 -25 -18 -26 -18 -59 5 -39 26 -84
29 -123 7z"/>
<path d="M3668 681 c-110 -35 -178 -137 -178 -263 0 -65 14 -99 57 -140 54
-52 130 -62 198 -28 47 24 45 24 45 5 0 -11 12 -15 50 -15 48 0 49 1 55 33 3
17 17 104 30 192 14 88 28 172 31 188 6 27 5 27 -50 27 -43 0 -56 -3 -56 -15
0 -19 -9 -19 -32 2 -21 19 -109 27 -150 14z m127 -115 c37 -37 42 -87 14 -143
-70 -141 -236 -113 -214 36 5 35 16 55 50 88 36 37 48 43 84 43 31 0 48 -6 66
-24z"/>
</g>
</svg>
