<svg width="1247" height="332" viewBox="0 0 1247 332" fill="none" xmlns="http://www.w3.org/2000/svg">
<g clip-path="url(#clip0_1_10)">
<g opacity="0.67" filter="url(#filter0_f_1_10)">
<path d="M-97.7266 266.446C-95.9225 266.446 -74.2721 261.312 -36.2152 251.145C-4.32417 242.626 20.8954 230.267 46.2816 217.121C59.3481 210.355 71.1524 202.457 90.553 186.622C109.954 170.787 136.175 147.015 152.104 135.747C168.034 124.478 172.877 126.435 181.398 138.926C189.92 151.416 201.973 174.381 209.771 187.255C217.569 200.129 220.746 202.216 224.291 203.375C230.956 205.554 247.685 201.916 288.094 189.822C316.917 181.195 360.542 165.46 390.223 156.121C419.904 146.781 433.786 143.789 443.852 141.934C453.919 140.08 459.749 139.455 463.004 143.397C481.953 166.343 476.641 180.838 488.524 187.745C501.374 195.214 534.796 199.164 561.481 208.945C567.14 210.448 572.266 210.563 588.289 208.336C604.312 206.108 631.077 201.535 658.653 196.823" stroke="#FBB609" stroke-width="75" stroke-linecap="round"/>
</g>
<g opacity="0.5" filter="url(#filter1_f_1_10)">
<path d="M1319.83 241.769C1310.7 242.232 1289.66 241.644 1263.58 234.262C1241.7 228.069 1203.06 215.426 1166.69 201.609C1130.33 187.791 1097.62 172.803 1077.52 162.498C1049.75 148.254 1037.75 132.634 1026.27 115.883C1017.12 102.534 1012.59 89.4131 1008.21 73.7131C1002.53 53.3007 1001.72 31.2047 1001.1 16.9269C1000.91 12.7102 999.232 14.7373 997.863 17.9438C994.674 25.4173 985.118 44.2505 968.521 75.9626C959.514 93.1732 952.662 113.581 948.705 127.223C944.747 140.864 944.747 147.357 943.769 149.576C942.849 151.662 930.677 130.725 916.599 97.4831C909.604 80.9669 907.17 64.241 905.371 36.4277C903.573 8.61442 903.573 -30.0162 902.897 -52.6169C902.221 -75.2176 900.869 -80.6176 898.895 -84.3517C896.921 -88.0857 894.366 -89.9902 890.517 -90.9713C886.668 -91.9524 881.602 -91.9524 875.069 -89.8477C859.754 -84.9142 847.306 -71.2691 837.459 -49.0527C831.28 -35.1109 829.274 -14.3546 827.4 15.0577C825.526 44.4701 825.526 82.2669 825.303 102.991C825.052 126.227 822.429 130.6 817.755 134.841C805.378 146.07 789.923 146.766 762.711 147.382C741.319 147.867 704.494 146.349 676.285 144.915C648.076 143.481 629.59 141.576 611.197 138.937C592.803 136.298 575.062 132.982 557 128.411C538.937 123.839 521.091 118.114 502.704 112.215" stroke="#88E4DF" stroke-width="75" stroke-linecap="round"/>
</g>
</g>
<defs>
<filter id="filter0_f_1_10" x="-310.227" y="-84.1794" width="1181.39" height="563.125" filterUnits="userSpaceOnUse" color-interpolation-filters="sRGB">
<feFlood flood-opacity="0" result="BackgroundImageFix"/>
<feBlend mode="normal" in="SourceGraphic" in2="BackgroundImageFix" result="shape"/>
<feGaussianBlur stdDeviation="87.5" result="effect1_foregroundBlur_1_10"/>
</filter>
<filter id="filter1_f_1_10" x="290.194" y="-304.107" width="1242.14" height="758.494" filterUnits="userSpaceOnUse" color-interpolation-filters="sRGB">
<feFlood flood-opacity="0" result="BackgroundImageFix"/>
<feBlend mode="normal" in="SourceGraphic" in2="BackgroundImageFix" result="shape"/>
<feGaussianBlur stdDeviation="87.5" result="effect1_foregroundBlur_1_10"/>
</filter>
<clipPath id="clip0_1_10">
<rect width="1247" height="332" fill="white"/>
</clipPath>
</defs>
</svg>
